<svg width="152" height="153" viewBox="0 0 152 153" fill="none" xmlns="http://www.w3.org/2000/svg">
<path d="M66.5 48.2087V38.7087H9.5C4.2655 38.7087 0 42.9742 0 48.2087V67.2088H68.5045C67.184 61.4043 66.5 55.1533 66.5 48.2087Z" fill="#D62E6A"/>
<path d="M151.611 78.2085C145.132 88.193 135.251 96.686 121.096 104.818C118.921 106.062 116.47 106.708 114 106.708C111.53 106.708 109.079 106.062 106.932 104.837C92.777 96.686 82.897 88.1835 76.4085 78.2085H0V125.708C0 130.952 4.2655 135.208 9.5 135.208H142.5C147.744 135.208 152 130.952 152 125.708V78.2085H151.611ZM42.75 106.708H23.75C21.128 106.708 19 104.58 19 101.958C19 99.3365 21.128 97.2085 23.75 97.2085H42.75C45.372 97.2085 47.5 99.3365 47.5 101.958C47.5 104.58 45.372 106.708 42.75 106.708Z" fill="#D62E6A"/>
<path d="M149.121 24.8479L115.871 10.5979C114.665 10.0849 113.326 10.0849 112.119 10.5979L78.869 24.8479C77.1305 25.5889 76 27.3084 76 29.2084V48.2084C76 74.3429 85.6615 89.6189 111.635 104.581C112.366 104.999 113.183 105.208 114 105.208C114.817 105.208 115.634 104.999 116.365 104.581C142.338 89.6569 152 74.3809 152 48.2084V29.2084C152 27.3084 150.869 25.5889 149.121 24.8479ZM131.964 46.4319L112.964 70.1819C112.052 71.3029 110.685 71.9584 109.25 71.9584C109.183 71.9584 109.108 71.9584 109.05 71.9584C107.54 71.8919 106.143 71.1129 105.298 69.8494L95.798 55.5994C94.3445 53.4144 94.9335 50.4694 97.1185 49.0159C99.2845 47.5719 102.239 48.1419 103.702 50.3364L109.601 59.1809L124.536 40.5039C126.179 38.4614 129.172 38.1384 131.214 39.7629C133.266 41.3874 133.589 44.3799 131.964 46.4319Z" fill="#D62E6A"/>
</svg>
