<svg width="124" height="29" viewBox="0 0 124 29" fill="none" xmlns="http://www.w3.org/2000/svg">
<path d="M27.125 20.2123C29.2956 26.2099 23.9834 27.0667 19.9851 25.5816C15.644 24.0393 11.7598 20.7264 9.18946 16.8423C8.33266 16.8423 7.59011 16.728 6.96179 16.4995C8.38978 20.6122 9.0181 24.839 8.61826 28.2662C8.61826 21.3547 5.36244 14.4432 0.678634 8.73128C-0.977835 6.7321 0.735753 5.24699 2.22086 7.18905C3.1919 8.55992 4.10581 9.98791 4.96261 11.5873C6.61907 5.93242 14.5587 1.02013 19.9851 0.220459C32.4943 -1.66449 24.4975 9.074 20.6134 12.0442C23.298 14.1005 25.9826 16.9565 27.125 20.2123ZM18.3857 13.6436C17.8145 14.0434 17.1862 14.3861 16.615 14.6717C14.8443 15.6428 13.0165 16.3282 11.36 16.6138C13.5305 19.1271 16.615 21.5261 19.8708 22.44C21.7558 22.9541 23.8692 22.7256 23.0695 20.041C22.327 17.5277 20.3278 15.3 18.3857 13.6436ZM10.389 8.10297C13.1878 7.76025 15.9867 9.01688 18.2715 10.3878C20.6705 8.90264 28.0961 0.848775 21.1846 1.59133C17.1862 2.04829 12.331 5.76106 10.389 8.10297ZM15.8153 11.7586C14.2731 10.7876 12.2168 9.75943 10.3319 9.93079C7.87571 10.1593 8.38978 13.0153 10.9602 13.0153C12.3882 12.9581 14.0446 12.5583 15.8153 11.7586Z" fill="white"/>
<path d="M33.9795 9.0169C33.9795 8.78842 34.1509 8.61707 34.3793 8.61707H41.405C41.6335 8.61707 41.8049 8.78842 41.8049 9.0169C41.8049 9.24538 41.6335 9.41674 41.405 9.41674H34.7792V13.9292H40.6625C40.891 13.9292 41.0623 14.1005 41.0623 14.329C41.0623 14.5575 40.891 14.7289 40.6625 14.7289H34.7792V19.3556C34.7792 19.584 34.6078 19.7554 34.3793 19.7554C34.1509 19.7554 33.9795 19.584 33.9795 19.3556V9.0169Z" fill="white"/>
<path d="M44.2041 8.44574C44.2041 8.21726 44.3755 8.0459 44.6039 8.0459C44.8324 8.0459 45.0038 8.21726 45.0038 8.44574V19.2413C45.0038 19.4698 44.8324 19.6412 44.6039 19.6412C44.3755 19.6412 44.2041 19.4698 44.2041 19.2413V8.44574Z" fill="white"/>
<path d="M54.6566 19.2413C54.6566 19.4698 54.4852 19.6411 54.2568 19.6411C54.0283 19.6411 53.8569 19.4698 53.8569 19.2413V18.0989C53.3428 19.0128 52.4289 19.7554 50.9438 19.7554C48.9446 19.7554 47.7451 18.3845 47.7451 16.4424V11.8729C47.7451 11.6444 47.9165 11.473 48.145 11.473C48.3734 11.473 48.5448 11.6444 48.5448 11.8729V16.2711C48.5448 17.9275 49.4587 19.0128 51.0581 19.0128C52.6003 19.0128 53.8569 17.8133 53.8569 16.1568V11.8729C53.8569 11.6444 54.0283 11.473 54.2568 11.473C54.4852 11.473 54.6566 11.6444 54.6566 11.8729V19.2413Z" fill="white"/>
<path d="M58.0267 17.5277V12.2727H57.1699C56.9985 12.2727 56.8271 12.1013 56.8271 11.9299C56.8271 11.7586 56.9985 11.5872 57.1699 11.5872H58.0267V9.35955C58.0267 9.13108 58.198 8.95972 58.4265 8.95972C58.655 8.95972 58.8263 9.13108 58.8263 9.35955V11.5872H61.3396C61.511 11.5872 61.6823 11.7586 61.6823 11.9299C61.6823 12.1013 61.511 12.2727 61.3396 12.2727H58.8263V17.4134C58.8263 18.5558 59.5118 18.9556 60.4257 18.9556C60.9969 18.9556 61.2254 18.7843 61.3396 18.7843C61.511 18.7843 61.6823 18.9556 61.6823 19.127C61.6823 19.2984 61.5681 19.4126 61.4538 19.4697C61.1682 19.584 60.7684 19.6982 60.3114 19.6982C58.9977 19.6982 58.0267 19.0128 58.0267 17.5277Z" fill="white"/>
<path d="M64.3099 17.5277V12.2727H63.4531C63.2817 12.2727 63.1104 12.1013 63.1104 11.9299C63.1104 11.7586 63.2817 11.5872 63.4531 11.5872H64.3099V9.35955C64.3099 9.13108 64.4812 8.95972 64.7097 8.95972C64.9382 8.95972 65.1095 9.13108 65.1095 9.35955V11.5872H67.6228C67.7942 11.5872 67.9655 11.7586 67.9655 11.9299C67.9655 12.1013 67.7942 12.2727 67.6228 12.2727H65.1095V17.4134C65.1095 18.5558 65.795 18.9556 66.7089 18.9556C67.2801 18.9556 67.5086 18.7843 67.6228 18.7843C67.7942 18.7843 67.9655 18.9556 67.9655 19.127C67.9655 19.2984 67.8513 19.4126 67.737 19.4697C67.4514 19.584 67.0516 19.6982 66.5946 19.6982C65.2809 19.6982 64.3099 19.0128 64.3099 17.5277Z" fill="white"/>
<path d="M73.2782 19.7553C71.1647 19.7553 69.3369 18.0989 69.3369 15.5856V15.5285C69.3369 13.1866 70.9934 11.3588 73.1068 11.3588C75.3345 11.3588 76.7625 13.1866 76.7625 15.5285C76.7625 15.6999 76.5911 15.8712 76.3626 15.8712H70.0795C70.1937 17.8704 71.6217 19.0128 73.221 19.0128C74.3634 19.0128 75.1631 18.5558 75.7914 17.9275C75.8485 17.8704 75.9057 17.8133 76.0199 17.8133C76.2484 17.8133 76.4197 17.9846 76.4197 18.156C76.4197 18.2131 76.3626 18.3274 76.3055 18.4416C75.6201 19.2413 74.7062 19.7553 73.2782 19.7553ZM76.0199 15.1858C75.9057 13.5864 74.9918 12.1013 73.1639 12.1013C71.5646 12.1013 70.3651 13.4151 70.1937 15.1858H76.0199Z" fill="white"/>
<path d="M79.0469 11.8729C79.0469 11.6444 79.2182 11.473 79.4467 11.473C79.6752 11.473 79.8466 11.6444 79.8466 11.8729V13.8149C80.532 12.2727 81.96 11.4159 83.0452 11.4159C83.2737 11.4159 83.4451 11.5873 83.4451 11.8157C83.4451 12.0442 83.2737 12.2156 83.0452 12.2156C81.3317 12.3869 79.8466 13.6436 79.8466 16.2139V19.1842C79.8466 19.4126 79.6752 19.584 79.4467 19.584C79.2182 19.584 79.0469 19.4126 79.0469 19.1842V11.8729Z" fill="white"/>
<path d="M86.5299 18.6702L84.4736 12.7297C84.4165 12.6155 84.3594 12.3299 84.3594 12.1585C84.3594 11.5873 84.8163 11.0732 85.5018 11.0732C86.073 11.0732 86.4728 11.4731 86.6442 11.9872L87.9579 16.2711L89.2717 12.0443C89.443 11.4731 89.9 11.0732 90.4712 11.0732H90.5854C91.2137 11.0732 91.6136 11.4731 91.7849 12.0443L93.0987 16.3282L94.4124 12.0443C94.5838 11.5302 94.9265 11.1304 95.5548 11.1304C96.2403 11.1304 96.6401 11.6444 96.6401 12.2156C96.6401 12.387 96.583 12.6155 96.583 12.7297L94.4695 18.7273C94.2411 19.4698 93.727 19.8125 93.1558 19.8125H93.0987C92.5275 19.8125 92.0134 19.4698 91.7849 18.7844L90.4712 14.5575L89.1003 18.7844C88.8718 19.4698 88.4149 19.8125 87.7866 19.8125H87.7294C87.2725 19.6983 86.7584 19.4127 86.5299 18.6702Z" fill="white"/>
<path d="M97.7246 17.1278C97.7246 15.2428 99.0955 14.386 101.095 14.386C101.951 14.386 102.58 14.5003 103.151 14.7288V14.6145C103.151 13.6435 102.523 13.0723 101.323 13.0723C100.638 13.0723 100.124 13.1865 99.6667 13.3008C99.5524 13.3579 99.4382 13.3579 99.324 13.3579C98.7528 13.3579 98.3529 12.9581 98.3529 12.3869C98.3529 11.987 98.6385 11.5872 98.9812 11.4729C99.7238 11.1874 100.523 11.016 101.666 11.016C102.98 11.016 103.894 11.3587 104.522 11.9299C105.15 12.5582 105.436 13.4721 105.436 14.6145V18.4415C105.436 19.0699 104.922 19.5839 104.293 19.5839C103.608 19.5839 103.151 19.0699 103.151 18.6129C102.58 19.2412 101.78 19.6982 100.638 19.6982C98.9812 19.6982 97.7246 18.8414 97.7246 17.1278ZM103.151 16.6137V16.2139C102.751 16.0425 102.237 15.9283 101.609 15.9283C100.581 15.9283 99.9523 16.3281 99.9523 17.0707V17.1278C99.9523 17.7561 100.466 18.1559 101.266 18.1559C102.408 18.0988 103.151 17.4705 103.151 16.6137Z" fill="white"/>
<path d="M110.862 19.7554H110.748C110.12 19.7554 109.663 19.3556 109.377 18.7273L106.807 12.7868C106.75 12.6155 106.692 12.4441 106.692 12.2156C106.692 11.6444 107.206 11.1304 107.835 11.1304C108.463 11.1304 108.806 11.4731 108.977 11.9872L110.805 16.8423L112.633 11.93C112.804 11.5302 113.147 11.1304 113.718 11.1304C114.346 11.1304 114.86 11.6444 114.86 12.2728C114.86 12.5012 114.803 12.7297 114.746 12.844L112.176 18.7844C111.947 19.2985 111.49 19.7554 110.862 19.7554Z" fill="white"/>
<path d="M120.173 19.7554C117.659 19.7554 115.774 17.9847 115.774 15.4143V15.3572C115.774 12.9582 117.488 10.959 119.944 10.959C122.743 10.959 124 13.2438 124 15.0145C124 15.6999 123.543 16.1569 122.914 16.1569H118.173C118.402 17.2421 119.144 17.8133 120.23 17.8133C120.915 17.8133 121.429 17.5849 121.943 17.2421C122.115 17.1279 122.286 17.0708 122.515 17.0708C123.029 17.0708 123.428 17.4706 123.428 17.9847C123.428 18.2703 123.314 18.5559 123.143 18.6701C122.343 19.3556 121.429 19.7554 120.173 19.7554ZM121.715 14.7289C121.601 13.6436 120.972 12.9582 119.944 12.9582C118.973 12.9582 118.288 13.6436 118.116 14.7289H121.715Z" fill="white"/>
</svg>
