<svg width="152" height="153" viewBox="0 0 152 153" fill="none" xmlns="http://www.w3.org/2000/svg">
<g clip-path="url(#clip0)">
<path d="M64.2578 137.654C62.2682 139.644 62.2682 142.87 64.2578 144.857C65.2524 145.852 66.5561 146.349 67.8588 146.349C69.1622 146.349 70.4656 145.852 71.4602 144.857L87.0539 129.261L79.8509 122.058L64.2578 137.654Z" fill="#D62E6A"/>
<path d="M99.5681 102.336L94.2559 107.651L101.458 114.853L113.973 102.336H99.5681Z" fill="#D62E6A"/>
<path d="M81.7407 102.336H67.3359L109.85 144.857C110.844 145.851 112.148 146.349 113.45 146.349C114.754 146.349 116.057 145.851 117.051 144.857C119.042 142.869 119.042 139.644 117.051 137.654L81.7407 102.336Z" fill="#D62E6A"/>
<path d="M32.0653 33.9549C38.7957 33.9549 44.2521 27.7123 44.2521 20.0128C44.2521 12.313 38.7957 6.06787 32.0653 6.06787C25.3303 6.06787 19.8789 12.313 19.8789 20.0128C19.8789 27.7123 25.3303 33.9549 32.0653 33.9549Z" fill="#D62E6A"/>
<path d="M27.3086 38.9259V49.041C27.3086 50.1055 28.1741 50.971 29.2386 50.971H34.889C35.9535 50.971 36.8187 50.1055 36.8187 49.041V38.9259C33.7847 38.9062 30.3429 38.9062 27.3086 38.9259Z" fill="#D62E6A"/>
<path d="M24.3754 93.042H22.1269C19.9735 93.042 18.2275 91.296 18.2275 89.1419V76.2719H12.9397L13.7905 72.1781H23.3604V38.9709C21.1468 39.0111 19.6196 39.0656 19.461 39.1399C17.72 39.5678 16.1681 40.6918 15.422 42.4801L0.445482 78.6918C-0.788613 81.6762 0.62917 85.0986 3.61363 86.3346C4.34462 86.6349 5.10571 86.7797 5.85174 86.7797C8.14471 86.7797 10.3236 85.4193 11.2586 83.1633L11.7711 81.9201L8.24439 98.8993C7.97607 100.187 8.30457 101.528 9.12992 102.548C9.96059 103.567 11.2041 104.159 12.5222 104.159H16.621V139.328C16.621 143.205 19.7644 146.349 23.6391 146.349C27.5138 146.349 30.6575 143.205 30.6575 139.328V104.159H33.473V139.328C33.473 143.205 36.6167 146.349 40.4914 146.349C44.3661 146.349 47.5098 143.205 47.5098 139.328V104.159H51.6086C52.9267 104.159 54.1699 103.567 55.0005 102.547C55.0504 102.485 55.0601 102.401 55.1052 102.336H35.1099C29.6478 102.336 25.1569 98.2868 24.3754 93.042Z" fill="#D62E6A"/>
<path d="M40.7695 72.1781H50.3348L51.1855 76.2719H45.9134V80.5544H64.0434C64.0036 79.9299 63.934 79.3008 63.6804 78.6918L48.7039 42.4805C47.9625 40.6922 46.4106 39.5681 44.6699 39.138C44.5107 39.0656 42.9838 39.0086 40.7702 38.9709V72.1781H40.7695Z" fill="#D62E6A"/>
<path d="M146.199 85.6477H141.77C143.051 84.1158 143.824 82.1432 143.824 79.9897C143.824 75.1157 139.873 71.1646 134.999 71.1646C130.125 71.1646 126.174 75.1157 126.174 79.9897C126.174 82.1432 126.946 84.1158 128.228 85.6477H121.291C122.572 84.1158 123.345 82.1432 123.345 79.9897C123.345 75.1157 119.394 71.1646 114.519 71.1646C109.645 71.1646 105.695 75.1157 105.695 79.9897C105.695 82.1432 106.467 84.1158 107.749 85.6477H100.699C101.98 84.1158 102.752 82.1432 102.752 79.9897C102.752 79.2133 102.652 78.461 102.463 77.7438C102.04 76.0755 101.129 74.602 99.89 73.4848C98.3195 72.0444 96.2262 71.1646 93.9273 71.1646C89.0533 71.1646 85.1021 75.1157 85.1021 79.9897C85.1021 82.1432 85.8745 84.1158 87.1562 85.6477H35.1089C31.9053 85.6477 29.3086 88.2444 29.3086 91.4452C29.3086 94.6459 31.9053 97.2426 35.1089 97.2426H146.199C149.403 97.2426 151.999 94.6459 151.999 91.4452C151.999 88.2444 149.403 85.6477 146.199 85.6477Z" fill="#D62E6A"/>
<path d="M116.127 64.5779C116.127 69.3159 119.967 73.1583 124.708 73.1583C129.447 73.1583 133.287 69.3159 133.287 64.5779C133.287 59.84 129.447 55.9976 124.708 55.9976C119.967 55.9976 116.127 59.84 116.127 64.5779Z" fill="#D62E6A"/>
<path d="M114.52 57.8778C119.26 57.8778 123.1 54.0354 123.1 49.2974C123.1 44.5594 119.26 40.717 114.52 40.717C109.779 40.717 105.939 44.5594 105.939 49.2974C105.939 54.0351 109.779 57.8778 114.52 57.8778Z" fill="#D62E6A"/>
<path d="M104.334 73.1583C109.074 73.1583 112.914 69.3159 112.914 64.5779C112.914 59.84 109.074 55.9976 104.334 55.9976C99.5938 55.9976 95.7539 59.84 95.7539 64.5779C95.7539 69.3156 99.5938 73.1583 104.334 73.1583Z" fill="#D62E6A"/>
</g>
<defs>
<clipPath id="clip0">
<rect width="152" height="152" fill="white" transform="translate(0 0.208496)"/>
</clipPath>
</defs>
</svg>
