<svg width="153" height="153" viewBox="0 0 153 153" fill="none" xmlns="http://www.w3.org/2000/svg">
<g clip-path="url(#clip0)">
<path d="M137.645 23.9536H89.8854C88.246 23.9536 86.9166 25.2827 86.9166 26.9224C86.9166 28.562 88.246 29.8911 89.8854 29.8911H137.645C142.555 29.8911 146.551 33.8865 146.551 38.7974V97.5786C146.551 102.49 142.555 106.485 137.645 106.485H76.4883C74.8489 106.485 73.5195 107.814 73.5195 109.454V118.318L62.5562 107.354C61.9993 106.797 61.2443 106.485 60.457 106.485H15.332C10.4211 106.485 6.42578 102.49 6.42578 97.5786V38.7974C6.42578 33.8865 10.4211 29.8911 15.332 29.8911H63.1666C64.806 29.8911 66.1354 28.562 66.1354 26.9224C66.1354 25.2827 64.806 23.9536 63.1666 23.9536H15.332C7.14719 23.9536 0.488281 30.6125 0.488281 38.7974V97.5786C0.488281 105.763 7.14719 112.422 15.332 112.422H59.2271L74.3888 127.584C74.9567 128.152 75.7161 128.454 76.4886 128.454C76.871 128.454 77.2569 128.38 77.6241 128.227C78.7332 127.768 79.4567 126.685 79.4567 125.485V112.422H137.644C145.829 112.422 152.488 105.763 152.488 97.5783V38.7974C152.488 30.6122 145.829 23.9536 137.645 23.9536Z" fill="#D62E6A"/>
<path d="M56.1021 59.2989C55.3477 58.9118 54.4963 58.6977 53.6045 58.6977H43.8714L40.8846 49.4854C40.1519 47.225 38.0646 45.7077 35.689 45.7077C35.6866 45.7077 35.6842 45.7077 35.6824 45.7077C33.3039 45.7106 31.2168 47.2336 30.4892 49.4979L27.5308 58.6977H17.8299C15.4522 58.6977 13.3637 60.2177 12.6325 62.4799C11.901 64.7421 12.7049 67.1967 14.6322 68.5884L22.5024 74.2703L19.4938 83.5025C18.7576 85.7621 19.5547 88.2181 21.4779 89.6146C22.4379 90.312 23.5625 90.6602 24.6874 90.6602C25.8149 90.6602 26.9424 90.3099 27.9037 89.6093L35.7558 83.8882L43.5728 89.5695C45.4959 90.9675 48.0793 90.9654 50.0004 89.5656C51.9218 88.1656 52.715 85.7074 51.9737 83.4485L48.9628 74.2715L56.1036 69.0937L63.2728 74.2697L60.2643 83.502C59.528 85.7615 60.3251 88.2175 62.2483 89.614C63.2084 90.3114 64.3329 90.6596 65.4578 90.6596C66.5853 90.6596 67.7129 90.3093 68.6741 89.6087L76.5262 83.8876L84.3432 89.5689C86.2661 90.9669 88.8495 90.9648 90.7709 89.565C92.6922 88.165 93.4855 85.7068 92.7442 83.4479L89.7333 74.2709L96.8743 69.0934L104.044 74.2694L101.035 83.5014C100.299 85.7606 101.096 88.2169 103.019 89.6134C103.979 90.3108 105.104 90.6593 106.229 90.6593C107.356 90.6593 108.483 90.309 109.445 89.6084L117.297 83.8876L125.114 89.5689C127.037 90.9669 129.621 90.9648 131.541 89.565C133.463 88.165 134.256 85.7068 133.515 83.4479L130.504 74.2709L138.352 68.5807C140.274 67.1866 141.074 64.7323 140.341 62.4734C139.608 60.2145 137.52 58.6969 135.145 58.6969H125.412L122.425 49.4842C121.692 47.2241 119.605 45.7068 117.23 45.7068C117.227 45.7068 117.225 45.7068 117.223 45.7068C114.844 45.7098 112.758 47.233 112.03 49.497L109.071 58.6969H99.3704C98.478 58.6969 97.6266 58.9109 96.8722 59.298C96.1179 58.9109 95.2664 58.6969 94.3743 58.6969H84.6413L81.6544 49.4845C80.9217 47.2241 78.8344 45.7068 76.4588 45.7068C76.4564 45.7068 76.4541 45.7068 76.4523 45.7068C74.0737 45.7098 71.9867 47.2327 71.259 49.497L68.3007 58.6969H58.5997C57.7082 58.6977 56.8567 58.9118 56.1021 59.2989ZM43.7248 70.736C42.6801 71.4934 42.2446 72.8388 42.6465 74.0649L45.8739 83.9018L37.499 77.815C36.4576 77.058 35.0468 77.0586 34.0054 77.8171L25.5943 83.9455L28.8184 74.0506C29.2183 72.824 28.7798 71.4791 27.7336 70.7239L19.3006 64.6352H29.6948C30.9844 64.6352 32.1262 63.8028 32.521 62.5752L35.691 52.7172L38.889 62.5821C39.2859 63.8064 40.4262 64.6352 41.7132 64.6352H52.1388L43.7248 70.736ZM111.236 64.6352C112.526 64.6352 113.668 63.8028 114.062 62.5752L117.233 52.7172L120.431 62.5821C120.828 63.8064 121.968 64.6352 123.255 64.6352H133.681L125.266 70.736C124.222 71.4934 123.786 72.8388 124.188 74.0649L127.415 83.9018L119.04 77.815C117.999 77.058 116.588 77.0589 115.547 77.8171L107.136 83.9452L110.36 74.0503C110.76 72.8237 110.322 71.4788 109.275 70.7236L100.842 64.6349H111.236V64.6352ZM70.4655 64.6352C71.7551 64.6352 72.8969 63.8028 73.2917 62.5752L76.4618 52.7172L79.6597 62.5821C80.0566 63.8064 81.1969 64.6352 82.4839 64.6352H92.9095L84.4955 70.736C83.4508 71.4934 83.0153 72.8388 83.4173 74.0649L86.6446 83.9018L78.2698 77.815C77.228 77.058 75.8173 77.0586 74.7761 77.8171L66.3651 83.9455L69.5894 74.0506C69.9893 72.8237 69.5508 71.4791 68.5046 70.7236L60.0716 64.6349H70.4655V64.6352Z" fill="#D62E6A"/>
<path d="M76.5254 29.8911C77.3062 29.8911 78.0721 29.5735 78.6243 29.0213C79.1762 28.4691 79.4941 27.7031 79.4941 26.9224C79.4941 26.1416 79.1765 25.3756 78.6243 24.8235C78.0721 24.2713 77.3062 23.9536 76.5254 23.9536C75.7416 23.9536 74.9787 24.2713 74.4235 24.8235C73.8713 25.3756 73.5566 26.1416 73.5566 26.9224C73.5566 27.7031 73.8713 28.4691 74.4235 29.0213C74.9787 29.5732 75.7446 29.8911 76.5254 29.8911Z" fill="#D62E6A"/>
</g>
<defs>
<clipPath id="clip0">
<rect width="152" height="152" fill="white" transform="translate(0.488281 0.203613)"/>
</clipPath>
</defs>
</svg>
